<?xml version="1.0" standalone="no"?>
<!DOCTYPE svg PUBLIC "-//W3C//DTD SVG 20010904//EN"
 "http://www.w3.org/TR/2001/REC-SVG-20010904/DTD/svg10.dtd">
<svg version="1.0" xmlns="http://www.w3.org/2000/svg"
 width="792.000000pt" height="792.000000pt" viewBox="0 0 792.000000 792.000000"
 preserveAspectRatio="xMidYMid meet">
<metadata>
Created by potrace 1.14, written by Peter Selinger 2001-2017
</metadata>
<g transform="translate(0.000000,792.000000) scale(0.100000,-0.100000)"
fill="#000000" stroke="none">
<path d="M4058 5825 c-3 -3 -65 -6 -138 -7 -120 -1 -133 -2 -137 -19 -6 -21
-2 -21 -101 -25 -74 -3 -102 -14 -102 -41 0 -11 -7 -13 -32 -7 -61 13 -63 12
-64 -31 -1 -63 2 -65 69 -65 72 0 68 -15 -5 -16 -31 -1 -53 -6 -59 -15 -15
-24 16 -35 96 -34 42 0 79 -3 81 -7 6 -9 0 -9 -91 -10 -94 0 -91 6 -90 -172 1
-85 4 -159 9 -163 10 -11 209 -11 223 -1 6 5 9 16 6 24 -3 8 0 14 6 14 8 0 11
-25 10 -79 -1 -43 1 -83 5 -90 4 -6 30 -10 65 -8 33 2 67 0 77 -4 23 -9 14
-11 -79 -13 -79 -2 -89 5 -84 60 6 68 0 72 -117 73 -72 1 -107 -2 -112 -11
-11 -17 -12 -140 -2 -161 7 -13 20 -17 53 -15 25 0 48 -2 52 -5 7 -7 4 -8 -59
-11 -21 -1 -41 -5 -44 -9 -4 -4 -7 -73 -8 -153 -1 -138 0 -147 19 -154 11 -4
24 -6 28 -3 5 3 18 2 30 -1 19 -4 22 -12 23 -61 0 -30 -3 -55 -8 -55 -4 0 -8
23 -8 50 l0 50 -34 0 c-18 0 -38 -6 -43 -12 -5 -7 -8 -48 -8 -92 1 -62 5 -80
19 -88 10 -5 16 -20 14 -36 -1 -15 2 -37 6 -49 8 -25 7 -25 158 -24 l87 0 -6
-30 c-5 -25 -2 -29 15 -29 12 0 24 5 27 10 3 6 -3 10 -15 10 -12 0 -18 5 -15
10 4 6 10 8 14 5 5 -2 6 6 4 19 -5 22 -8 23 -121 24 -65 0 -120 1 -123 1 -4 1
-9 18 -11 38 -3 26 1 42 13 54 9 9 19 25 22 36 3 14 7 10 18 -17 7 -19 12 -38
11 -42 -2 -9 6 -10 151 -9 82 1 113 -3 132 -15 17 -11 52 -16 119 -18 52 -1
98 -5 102 -9 12 -12 44 12 37 29 -4 12 -13 14 -37 9 -17 -5 -67 -8 -111 -9
-61 -1 -84 3 -95 15 -12 13 -39 15 -144 15 -95 -1 -130 2 -133 12 -8 19 12 37
57 52 54 18 72 39 29 35 -49 -4 -69 5 -69 31 0 12 4 25 9 28 4 3 8 -4 7 -17
-1 -23 1 -24 80 -26 22 -1 42 -11 63 -33 l32 -33 247 -2 c136 -2 258 -4 272
-5 19 -2 25 2 25 17 0 14 -6 19 -20 17 -11 -2 -130 -5 -264 -6 l-244 -3 -31
28 c-30 26 -32 32 -34 106 -1 45 1 73 6 65 5 -7 9 -31 10 -53 1 -22 9 -47 17
-55 8 -9 13 -20 10 -24 -10 -16 29 -26 92 -24 51 1 66 6 80 23 20 24 55 28
155 17 57 -7 73 -1 58 23 -5 10 -17 11 -36 6 -16 -4 -60 -7 -98 -7 -78 0 -96
-4 -96 -24 0 -8 -8 -14 -17 -15 -95 -4 -113 -3 -114 1 0 3 -2 14 -4 24 -2 11
3 32 11 47 8 16 14 38 14 50 0 15 4 19 15 15 10 -4 19 3 27 19 10 22 15 24 98
24 85 0 88 0 94 -24 3 -13 14 -26 24 -29 9 -3 89 -6 177 -8 135 -2 160 0 160
12 0 12 -27 15 -169 15 l-170 0 -6 25 c-6 24 -9 25 -96 28 -91 3 -91 3 -86 27
3 18 0 25 -11 25 -22 0 -47 -28 -41 -45 4 -8 1 -15 -5 -15 -6 0 -11 13 -11 29
0 32 -10 39 -50 33 -22 -3 -26 -8 -22 -27 4 -25 1 -26 -95 -39 -46 -6 -49 -10
-46 -55 1 -22 -2 -43 -7 -46 -5 -3 -9 19 -9 50 1 57 5 63 46 69 16 3 18 14 18
104 1 91 -1 102 -17 102 -10 0 -18 5 -18 11 0 6 10 9 23 7 15 -2 23 -11 26
-28 4 -32 13 -37 61 -34 22 1 40 -2 40 -7 0 -5 -3 -8 -7 -8 -5 1 -27 1 -50 0
l-43 -1 0 -73 0 -74 30 5 c25 4 30 9 30 33 0 27 3 29 43 30 23 1 47 0 52 -1
41 -11 54 -10 68 4 17 17 72 23 62 7 -13 -23 43 -29 259 -29 204 0 231 -2 242
-17 9 -13 31 -18 81 -20 37 -2 77 -5 88 -7 14 -2 21 3 23 20 2 12 -1 22 -7 22
-6 0 -11 -7 -11 -16 0 -12 -3 -14 -12 -6 -7 5 -40 9 -72 7 -47 -1 -62 2 -75
17 -14 17 -34 18 -253 18 -156 0 -238 4 -238 10 0 6 -11 15 -25 20 -22 8 -24
13 -15 35 6 15 10 36 10 49 0 18 6 22 35 24 31 2 35 0 35 -22 0 -35 35 -53
100 -49 65 3 80 18 80 79 l0 42 130 -1 c72 -1 130 0 130 3 0 3 11 5 25 5 14 0
25 -3 25 -7 0 -4 6 -5 14 -2 15 6 33 -21 31 -46 -1 -8 4 -21 9 -29 9 -12 7
-13 -6 -8 -12 4 -18 2 -18 -7 0 -18 25 -27 38 -14 8 8 8 17 1 31 -6 10 -9 27
-6 36 2 10 -2 26 -10 37 -13 17 -29 19 -176 21 -213 3 -207 5 -207 -57 0 -58
-16 -70 -83 -64 -50 4 -57 10 -57 46 0 30 -1 30 -45 26 -41 -3 -45 -1 -45 19
0 16 -6 23 -20 23 -11 0 -20 5 -20 10 0 6 6 10 14 10 7 0 19 7 26 15 7 9 17
12 24 7 17 -13 40 -8 44 9 2 12 -5 15 -36 12 -31 -2 -41 1 -44 15 -9 33 2 42
56 42 39 0 56 -5 69 -20 15 -18 29 -20 121 -20 118 0 127 5 128 69 l0 40 92
-3 c50 -2 101 -6 113 -9 24 -6 36 12 22 34 -5 8 -9 10 -9 4 0 -6 -46 -10 -117
-10 l-118 0 -2 -40 c-5 -66 -3 -65 -110 -65 -87 0 -100 2 -111 20 -10 17 -23
20 -77 20 l-64 0 -10 38 c-6 20 -11 46 -11 57 0 39 -27 64 -63 60 -18 -2 -39
0 -47 5 -11 7 0 10 37 10 45 0 51 2 46 19 -4 18 2 19 84 19 l88 -1 1 -44 c1
-49 13 -63 57 -63 56 0 67 14 67 84 0 42 4 65 13 68 17 7 298 2 324 -5 24 -6
36 12 22 34 -5 8 -9 10 -9 4 0 -6 -61 -10 -163 -9 -89 0 -172 -4 -184 -9 -19
-9 -23 -19 -25 -76 l-3 -66 -37 -3 c-40 -3 -44 2 -50 73 l-3 30 -99 3 c-87 2
-102 5 -114 23 -9 13 -23 19 -40 18 -72 -5 -98 10 -30 18 133 15 128 13 128
44 0 16 6 30 13 30 43 6 214 5 222 -1 18 -11 40 -6 43 11 2 9 -4 19 -13 23 -9
3 -14 2 -11 -2 2 -4 -53 -7 -122 -7 l-127 0 -15 -32 c-13 -28 -20 -33 -52 -33
-20 0 -40 5 -43 10 -3 6 -25 10 -48 11 -32 0 -37 2 -22 8 11 5 23 7 28 4 14
-8 7 25 -8 37 -8 7 -15 21 -15 31 0 17 9 19 93 19 98 0 108 3 125 36 10 20 18
21 129 18 65 -2 129 -4 143 -6 15 -2 25 2 27 12 3 13 -17 15 -149 14 -84 -1
-156 -2 -160 -3 -4 0 -8 -11 -10 -23 -3 -22 -8 -23 -102 -26 -88 -2 -102 -5
-122 -25 -20 -20 -22 -32 -20 -95 2 -67 1 -72 -18 -73 -75 -4 -71 -1 -74 -52
-3 -42 -1 -48 15 -47 51 6 114 -1 108 -11 -4 -6 -13 -8 -21 -5 -8 3 -14 0 -13
-7 3 -22 -1 -37 -9 -37 -5 0 -8 10 -8 23 1 19 -4 22 -34 22 -51 1 -60 10 -60
64 0 56 12 69 58 66 17 -1 33 1 33 4 1 3 2 43 3 89 1 57 -2 82 -10 82 -6 0
-14 -9 -17 -20 -3 -11 -12 -20 -21 -20 -15 0 -15 2 -2 23 18 26 11 41 -24 52
-35 10 -50 24 -50 46 0 15 8 19 38 20 126 3 134 5 151 25 15 19 28 21 141 22
69 0 130 -4 136 -9 17 -14 46 12 34 31 -6 10 -10 11 -10 3 0 -7 -5 -13 -11
-13 -5 0 -7 5 -4 10 6 10 -7 14 -17 5z m-94 -893 c2 -4 -13 -8 -35 -8 -21 0
-39 3 -39 8 0 10 67 11 74 0z m10 -37 c3 -8 1 -15 -4 -15 -6 0 -10 7 -10 15 0
8 2 15 4 15 2 0 6 -7 10 -15z m226 -285 c0 -5 -2 -10 -4 -10 -3 0 -8 5 -11 10
-3 6 -1 10 4 10 6 0 11 -4 11 -10z m170 -94 c0 -3 -4 -8 -10 -11 -5 -3 -10 -1
-10 4 0 6 5 11 10 11 6 0 10 -2 10 -4z m-240 -106 c0 -5 -4 -10 -10 -10 -5 0
-10 5 -10 10 0 6 5 10 10 10 6 0 10 -4 10 -10z"/>
<path d="M3340 5723 c-11 -14 -20 -30 -20 -36 0 -6 -8 -3 -18 7 -18 15 -20 15
-36 -3 -11 -12 -14 -21 -7 -26 21 -12 10 -22 -26 -22 -54 0 -82 -36 -77 -100
4 -48 4 -48 -11 -20 -17 29 -22 32 -45 17 -10 -6 -15 -26 -15 -65 0 -30 -3
-55 -7 -55 -5 0 -8 17 -8 38 l0 37 -20 -30 c-24 -37 -25 -45 -2 -46 13 0 12
-2 -5 -9 -22 -9 -45 -42 -50 -72 -4 -24 24 -48 55 -48 21 0 24 -2 12 -10 -8
-5 -25 -7 -37 -4 -17 5 -25 1 -29 -12 -3 -11 -12 -32 -19 -49 -8 -16 -12 -31
-10 -34 9 -8 34 21 29 34 -4 10 5 11 41 8 44 -5 47 -4 86 38 22 24 37 35 33
24 -4 -11 -16 -30 -27 -42 -29 -32 -18 -36 28 -10 33 19 40 28 41 55 1 20 -10
50 -27 78 -33 51 -35 58 -15 51 8 -3 22 0 32 8 14 10 18 25 16 73 -1 44 3 65
14 76 27 28 35 17 15 -20 -29 -54 -10 -107 54 -146 l30 -18 -26 0 c-14 0 -34
-9 -43 -19 -20 -22 -38 -88 -31 -112 7 -23 84 -58 125 -57 19 0 48 -3 64 -7
34 -9 56 12 56 55 0 40 -33 64 -86 63 -24 -1 -44 2 -44 7 0 5 6 7 13 5 6 -2
19 1 28 8 23 18 59 78 60 102 0 12 3 15 6 7 6 -16 -15 -71 -36 -92 -13 -13
-12 -15 8 -18 12 -2 25 -10 28 -18 21 -55 25 78 4 154 -13 46 -15 48 -51 27
-14 -8 -34 -14 -45 -14 -12 -1 -4 7 21 18 62 28 98 89 96 160 -2 45 -10 50
-33 21 l-19 -25 6 31 c10 51 -44 78 -76 37z m40 -128 c0 -4 -7 -2 -15 5 -8 7
-24 10 -35 7 -11 -3 -23 -1 -26 4 -3 5 0 9 5 9 6 0 11 11 11 25 0 26 0 25 30
-8 17 -19 30 -38 30 -42z"/>
<path d="M3814 5739 c-11 -19 8 -26 68 -25 49 1 63 4 63 16 0 12 -14 15 -63
16 -34 1 -65 -3 -68 -7z m36 -9 c0 -5 -4 -10 -10 -10 -5 0 -10 5 -10 10 0 6 5
10 10 10 6 0 10 -4 10 -10z m80 0 c0 -5 -2 -10 -4 -10 -3 0 -8 5 -11 10 -3 6
-1 10 4 10 6 0 11 -4 11 -10z"/>
<path d="M4377 5599 c-10 -6 -32 -7 -49 -4 -34 8 -54 -10 -37 -32 8 -9 16 -9
35 -1 17 8 31 8 48 0 19 -9 27 -8 37 4 18 22 -8 47 -34 33z m-57 -13 c0 -3 -4
-8 -10 -11 -5 -3 -10 -1 -10 4 0 6 5 11 10 11 6 0 10 -2 10 -4z m80 -6 c0 -5
-4 -10 -10 -10 -5 0 -10 5 -10 10 0 6 5 10 10 10 6 0 10 -4 10 -10z"/>
<path d="M3996 5513 c-3 -8 -4 -19 0 -24 7 -12 51 -12 59 0 5 10 17 9 62 -5
16 -4 25 -1 29 11 11 27 -8 36 -48 23 -20 -6 -45 -7 -55 -3 -32 14 -41 13 -47
-2z m29 -13 c3 -5 2 -10 -4 -10 -5 0 -13 5 -16 10 -3 6 -2 10 4 10 5 0 13 -4
16 -10z m115 6 c0 -3 -4 -8 -10 -11 -5 -3 -10 -1 -10 4 0 6 5 11 10 11 6 0 10
-2 10 -4z"/>
<path d="M3192 5419 c-22 -27 -22 -30 -7 -60 l17 -31 19 31 c10 17 24 31 29
31 6 0 8 5 5 10 -4 7 -13 6 -26 -1 -18 -9 -19 -8 -10 8 17 33 -2 42 -27 12z"/>
<path d="M4284 5384 c-7 -3 -10 -14 -7 -25 5 -17 11 -19 37 -13 44 10 96 11
133 3 40 -8 66 13 36 29 -10 6 -25 7 -33 2 -16 -8 -116 -7 -140 3 -8 3 -20 3
-26 1z m26 -25 c0 -6 -4 -7 -10 -4 -5 3 -10 11 -10 16 0 6 5 7 10 4 6 -3 10
-11 10 -16z"/>
<path d="M4012 5368 c-7 -7 -8 -17 -2 -28 9 -17 7 -51 -4 -69 -9 -14 18 -31
34 -21 12 7 13 15 4 39 -7 17 -8 35 -3 42 19 30 -6 60 -29 37z m28 -12 c0 -3
-4 -8 -10 -11 -5 -3 -10 -1 -10 4 0 6 5 11 10 11 6 0 10 -2 10 -4z m0 -80 c0
-3 -4 -8 -10 -11 -5 -3 -10 -1 -10 4 0 6 5 11 10 11 6 0 10 -2 10 -4z"/>
<path d="M4164 5245 c-10 -24 12 -42 34 -29 10 7 29 8 47 3 33 -9 51 1 42 25
-5 12 -12 14 -29 7 -24 -9 -41 -8 -70 4 -12 5 -20 2 -24 -10z m33 -11 c-3 -3
-12 -4 -19 -1 -8 3 -5 6 6 6 11 1 17 -2 13 -5z m83 2 c0 -3 -4 -8 -10 -11 -5
-3 -10 -1 -10 4 0 6 5 11 10 11 6 0 10 -2 10 -4z"/>
<path d="M3133 5208 c-17 -13 -40 -36 -49 -53 -19 -32 -32 -19 -14 15 15 28 4
42 -32 36 -58 -9 -108 -85 -86 -129 23 -45 84 -85 137 -89 21 -1 27 -6 21 -13
-5 -7 -11 -22 -13 -36 -2 -13 -9 -24 -16 -24 -6 0 -16 -7 -21 -15 -8 -12 -10
-13 -10 -1 0 8 7 23 17 33 15 17 15 19 -3 39 -12 14 -25 18 -41 14 -18 -4 -25
0 -33 19 -11 31 -25 39 -38 23 -13 -15 23 -157 43 -173 11 -8 28 -8 59 -1 37
8 44 13 40 30 -2 15 0 17 7 10 16 -16 7 -46 -16 -49 -58 -9 -77 -13 -82 -18
-3 -2 2 -19 11 -37 9 -18 16 -40 16 -49 0 -20 30 -50 50 -50 7 0 22 8 33 18
23 19 16 0 -12 -31 -14 -17 -14 -20 4 -33 17 -12 21 -11 42 8 13 12 24 20 25
17 2 -2 8 -13 14 -24 7 -12 21 -19 34 -19 14 1 33 -9 48 -27 13 -16 32 -29 43
-29 22 0 23 6 5 39 -7 13 -11 40 -9 59 5 35 5 35 -28 29 -19 -3 -41 -8 -51
-12 -12 -5 -18 1 -24 27 -4 18 -8 37 -8 41 -1 4 -7 11 -15 16 -10 7 -11 13 -1
31 14 26 17 24 24 -15 17 -95 19 -97 76 -69 40 20 49 10 44 -49 -5 -46 8 -60
43 -46 38 14 51 10 16 -6 -17 -7 -36 -22 -42 -33 -17 -32 -35 -32 -71 -1 -23
20 -39 27 -53 23 -14 -4 -25 0 -37 16 -21 28 -42 18 -36 -17 3 -14 6 -27 8
-28 10 -9 233 -105 257 -110 23 -5 32 -2 40 14 16 30 13 48 -11 71 -13 12 -18
21 -13 20 22 -5 35 1 35 15 0 8 -4 15 -9 15 -11 0 -9 19 3 39 7 11 5 13 -7 8
-21 -8 -21 -3 -1 18 23 23 27 154 6 163 -22 8 -47 -13 -45 -37 2 -12 1 -21 -1
-21 -4 0 -36 59 -36 65 0 1 10 0 23 -2 33 -7 65 33 68 85 4 52 -8 66 -44 53
-17 -7 -27 -7 -27 -1 0 5 11 12 25 16 36 9 46 35 44 114 l-2 70 -41 -1 c-23 0
-55 2 -73 5 -25 4 -39 0 -61 -19 -17 -14 -34 -25 -38 -25 -5 0 2 7 14 16 29
20 28 38 -4 63 -35 27 -81 27 -121 -1z m40 -196 c24 -26 21 -29 -14 -24 -19 3
-27 8 -21 14 5 5 8 30 6 56 -3 45 -3 46 5 10 4 -21 15 -46 24 -56z m143 -4
c-9 -12 -16 -31 -16 -41 0 -10 -4 -16 -9 -13 -13 8 -18 -12 -16 -61 2 -53 -10
-56 -20 -6 -3 20 -19 52 -33 71 -26 34 -26 35 -4 23 13 -7 26 -19 29 -27 7
-20 20 -9 43 37 11 21 25 39 31 39 5 0 3 -10 -5 -22z m0 -125 c8 -18 19 -33
24 -33 6 0 10 -5 10 -10 0 -17 -38 12 -49 37 -6 13 -11 34 -10 46 0 14 2 17 6
7 2 -8 11 -30 19 -47z m-117 -11 c5 -10 6 -24 2 -31 -6 -9 -10 -3 -13 18 -5
36 -3 38 11 13z m-65 -117 c-4 -8 -10 -15 -15 -15 -5 0 -9 7 -9 15 0 8 7 15
15 15 9 0 12 -6 9 -15z"/>
<path d="M4413 5173 c-17 -6 -17 -40 0 -46 8 -3 20 -1 28 4 15 10 119 12 264
5 21 -1 30 4 30 14 0 11 -10 14 -40 13 -107 -5 -237 -3 -253 5 -9 5 -23 7 -29
5z m13 -30 c-10 -10 -19 5 -10 18 6 11 8 11 12 0 2 -7 1 -15 -2 -18z m304 13
c0 -3 -4 -8 -10 -11 -5 -3 -10 -1 -10 4 0 6 5 11 10 11 6 0 10 -2 10 -4z"/>
<path d="M4135 5101 c-3 -6 -3 -26 0 -45 4 -20 2 -36 -4 -40 -15 -10 -2 -36
19 -36 20 0 34 26 19 35 -5 4 -8 25 -7 47 3 39 -13 61 -27 39z m25 -11 c0 -5
-5 -10 -11 -10 -5 0 -7 5 -4 10 3 6 8 10 11 10 2 0 4 -4 4 -10z m0 -90 c0 -5
-2 -10 -4 -10 -3 0 -8 5 -11 10 -3 6 -1 10 4 10 6 0 11 -4 11 -10z"/>
<path d="M4303 4973 c-18 -6 -16 -30 3 -37 8 -3 23 -2 32 2 21 11 140 9 165
-3 11 -4 23 -3 30 4 8 8 6 11 -8 12 -19 0 -19 1 0 9 14 6 16 9 5 10 -8 2 -19
1 -25 0 -23 -7 -161 -6 -175 0 -8 4 -21 5 -27 3z m22 -12 c3 -5 1 -12 -5 -16
-5 -3 -10 1 -10 9 0 18 6 21 15 7z"/>
<path d="M4194 4795 c-12 -29 3 -46 31 -35 34 13 85 13 85 0 0 -7 7 -7 21 0
21 12 22 31 1 38 -8 2 -10 -3 -6 -15 5 -15 4 -15 -5 -3 -6 9 -23 13 -45 12
-19 -2 -44 2 -55 8 -17 9 -22 8 -27 -5z m21 -15 c3 -5 1 -10 -4 -10 -6 0 -11
5 -11 10 0 6 2 10 4 10 3 0 8 -4 11 -10z"/>
<path d="M3934 4704 c-10 -4 -8 -44 1 -44 1 0 16 5 34 11 24 9 35 8 47 -2 20
-16 48 8 34 30 -7 12 -14 13 -33 4 -14 -7 -29 -8 -38 -2 -15 9 -27 10 -45 3z
m21 -14 c3 -5 1 -10 -4 -10 -6 0 -11 5 -11 10 0 6 2 10 4 10 3 0 8 -4 11 -10z
m85 0 c0 -5 -5 -10 -11 -10 -5 0 -7 5 -4 10 3 6 8 10 11 10 2 0 4 -4 4 -10z"/>
<path d="M4270 4620 c-14 -26 8 -36 47 -23 32 10 155 10 194 -1 31 -9 47 8 29
29 -8 10 -18 12 -29 6 -23 -13 -198 -14 -206 -1 -10 16 -23 12 -35 -10z m30
-4 c0 -3 -4 -8 -10 -11 -5 -3 -10 -1 -10 4 0 6 5 11 10 11 6 0 10 -2 10 -4z
m240 0 c0 -3 -4 -8 -10 -11 -5 -3 -10 -1 -10 4 0 6 5 11 10 11 6 0 10 -2 10
-4z"/>
<path d="M4184 4432 c-5 -4 -10 -14 -9 -22 0 -18 33 -26 48 -11 7 7 19 6 38
-5 26 -13 29 -13 39 5 13 26 -15 45 -41 28 -13 -8 -24 -8 -42 0 -13 6 -28 8
-33 5z m26 -16 c0 -3 -4 -8 -10 -11 -5 -3 -10 -1 -10 4 0 6 5 11 10 11 6 0 10
-2 10 -4z m80 -6 c0 -5 -2 -10 -4 -10 -3 0 -8 5 -11 10 -3 6 -1 10 4 10 6 0
11 -4 11 -10z"/>
<path d="M3893 4327 c3 -9 2 -19 -3 -22 -6 -4 -10 1 -10 9 0 9 -4 16 -10 16
-15 0 -12 -16 5 -30 8 -7 20 -8 27 -4 19 12 191 13 206 1 9 -7 18 -5 30 7 15
15 15 18 2 26 -8 5 -24 7 -35 3 -28 -9 -176 -7 -199 2 -16 7 -18 5 -13 -8z
m242 -7 c3 -5 -1 -10 -10 -10 -9 0 -13 5 -10 10 3 6 8 10 10 10 2 0 7 -4 10
-10z"/>
<path d="M4328 4306 c-93 -40 -131 -139 -89 -232 55 -121 224 -129 296 -13 48
75 15 197 -63 235 -43 20 -110 25 -144 10z m-34 -107 c-7 -11 -34 -12 -34 -1
0 14 11 21 26 15 8 -3 11 -9 8 -14z m141 9 c5 4 5 2 2 -4 -7 -12 -57 -16 -57
-4 0 14 13 19 30 10 10 -5 21 -6 25 -2z m84 -14 c-6 -7 -15 -11 -21 -8 -5 3
-4 12 3 20 6 7 15 11 21 8 5 -3 4 -12 -3 -20z m-149 6 c0 -5 -8 -10 -17 -10
-15 0 -16 2 -3 10 19 12 20 12 20 0z m-70 -105 c10 -12 10 -15 -4 -15 -9 0
-16 7 -16 15 0 8 2 15 4 15 2 0 9 -7 16 -15z m204 -6 c-8 -14 -24 -10 -24 6 0
9 6 12 15 9 8 -4 12 -10 9 -15z"/>
<path d="M1719 3945 c-79 -15 -153 -62 -200 -125 -77 -104 -82 -258 -10 -365
62 -94 151 -145 261 -149 216 -9 381 200 323 409 -47 164 -208 264 -374 230z"/>
<path d="M2430 3948 c-105 -16 -194 -78 -240 -168 -28 -55 -32 -71 -35 -150
-7 -171 125 -309 309 -325 75 -6 227 55 226 92 0 4 -11 18 -23 30 l-23 22 -60
-30 c-51 -26 -68 -30 -120 -27 -165 10 -272 182 -206 332 23 50 64 91 124 122
66 35 171 22 240 -28 14 -10 21 -8 43 12 33 31 32 40 -8 67 -67 45 -145 63
-227 51z"/>
<path d="M2763 3950 c-15 -4 -19 -14 -18 -45 l0 -40 75 0 75 0 5 -280 5 -279
43 -2 c23 0 42 3 43 7 0 5 1 130 1 279 1 186 4 270 12 273 6 2 41 3 79 2 l67
-2 0 46 0 46 -184 0 c-102 0 -193 -2 -203 -5z"/>
<path d="M3619 3927 c-3 -150 0 -607 4 -614 4 -7 337 -11 368 -4 8 1 6 75 -3
81 -3 3 -67 5 -142 5 l-136 -1 -1 71 c0 38 0 163 0 278 l0 207 -27 1 c-15 0
-35 2 -44 4 -14 2 -18 -4 -19 -28z"/>
<path d="M4313 3952 c-20 -3 -23 -9 -23 -50 -1 -75 -1 -326 -1 -468 l1 -130
110 0 110 1 0 25 c3 156 0 613 -3 617 -6 5 -162 9 -194 5z m86 -237 c2 6 2 35
1 65 -1 49 7 65 14 28 2 -7 13 -35 24 -61 12 -27 22 -51 22 -54 0 -3 7 -21 16
-40 16 -33 16 -36 -5 -77 -11 -24 -21 -55 -21 -70 0 -14 -4 -26 -10 -27 -66
-7 -83 -3 -86 21 -2 14 -13 45 -25 70 l-21 46 39 109 38 110 6 -65 c3 -36 7
-60 8 -55z m49 -293 c-3 -33 -5 -35 -41 -38 -42 -2 -57 13 -49 51 3 17 12 25
31 27 51 6 62 -2 59 -40z"/>
<path d="M4392 3666 c1 -21 -3 -41 -8 -44 -15 -12 -15 -39 0 -52 23 -18 39 -2
32 34 -4 17 -8 43 -9 58 -5 43 -17 45 -15 4z"/>
<path d="M4621 3952 c-17 -6 -15 -638 2 -644 31 -12 204 1 247 18 224 88 284
362 116 530 -69 68 -135 93 -260 97 -52 1 -99 1 -105 -1z"/>
<path d="M5134 3945 c-3 -6 -3 -152 -2 -325 l3 -315 185 0 185 0 0 45 0 45
-140 0 -140 0 0 40 0 40 108 0 107 0 0 42 c0 27 -5 43 -12 44 -7 1 -56 2 -108
3 l-95 1 -3 150 -2 150 127 -1 c71 -1 135 0 144 2 23 6 22 84 0 85 -134 5
-354 2 -357 -6z"/>
<path d="M6231 3948 c-93 -16 -155 -93 -156 -194 0 -94 83 -172 200 -187 62
-7 91 -23 104 -54 23 -56 -17 -108 -91 -117 -56 -7 -117 33 -118 77 0 14 -9
17 -45 17 -49 0 -51 -3 -35 -60 28 -101 168 -153 281 -106 40 17 98 77 100
104 1 9 3 31 4 47 3 43 -21 96 -57 128 -29 26 -111 57 -149 57 -10 0 -34 7
-53 17 -56 26 -69 88 -32 145 21 33 61 47 106 39 57 -10 86 -38 97 -96 4 -24
17 -32 46 -29 12 1 28 3 35 3 8 1 11 12 8 34 -16 122 -121 197 -245 175z"/>
<path d="M3297 3920 c-24 -54 -40 -95 -91 -225 -26 -66 -51 -129 -56 -140 -5
-11 -25 -60 -45 -110 -19 -49 -40 -98 -46 -108 -14 -25 -7 -30 45 -32 43 -2
45 -1 60 39 l16 41 127 0 128 0 17 -33 c22 -45 22 -45 72 -47 l44 -3 -25 67
c-13 36 -69 176 -123 311 -54 135 -100 252 -103 260 -3 10 -10 3 -20 -20z"/>
<path d="M5802 3930 c-42 -107 -226 -561 -237 -585 -7 -16 -12 -32 -9 -34 2
-3 24 -5 49 -6 43 -2 45 -1 60 39 l16 41 131 0 131 0 15 -42 c15 -40 16 -41
61 -39 54 3 54 -2 5 121 -20 50 -39 99 -43 110 -5 11 -13 31 -19 45 -6 14 -43
104 -81 200 -62 154 -71 171 -79 150z"/>
</g>
</svg>
